<?xml version="1.0" encoding="UTF-8"?>
<svg width="1200pt" height="1200pt" version="1.1" viewBox="0 0 1200 1200" xmlns="http://www.w3.org/2000/svg">
 <g>
  <path d="m819.82 869.57c-1.3086 1.8008-3.7578 2.1016-6.0469 2.0898-22.789-0.22656-44.184 5.0156-65.664 13.738-22.727 9.2266-41.723 24.312-62.148 37.297-24 15.254-44.941 34.871-67.488 52.164-20.281 15.562-38.867 33.301-58.586 49.559-7.4297 6.1211-14.652 12.707-19.621 21.59-1.4141 2.5312-3.2656 4.9805-5.3984 6.8281-5.9648 5.1484-10.078 11.387-13.738 18.742-4.3672 8.7734-11.316 16.031-16.789 24.227-9.8633 14.773-19.379 29.82-29.207 44.617-8.7617 13.199-14.543 12.48-25.379 0.73047-45.781-49.668-82.559-107.41-125.48-159.64-3.625-4.4141-10.094-8.3164-7.8828-16.309 0.34766-1.2617 0.21484-1.2969-0.97266-1.957-17.879-9.9727-26.629-29.062-37.801-45.301-19.871-28.871-41.785-55.801-63.742-82.766-12.07-14.82-24.816-29.051-36.191-44.461-12.254-16.598-22.848-34.598-34.906-51.371-20.664-28.766-39.602-58.922-62.281-86.062-9.9492-11.914-19.055-24.742-28.703-37.031-5.3047-6.7578-4.2461-22.141 2.4609-27.469 12.48-9.9102 22.523-23.027 36.266-31.223 3.3477-1.9922 6.7305-4.6445 7.9688-8.3633 4.3438-13.129 12.707-24.035 16.152-37.871 4.8008-19.32 10.066-38.676 24.191-53.762 6.5273-6.9727 10.094-16.848 15.938-24.852 23.438-32.074 54.191-54.348 86.305-74.723 24.289-15.422 49.391-29.16 76.547-38.184 23.531-7.8242 47.578-12.086 72.145-13.043 13.141-0.51562 26.305-0.74219 39.457-0.82812 9.5156-0.058594 15.312-4.9453 20.148-13.691 14.617-26.473 30.012-52.453 45.086-78.648 4.7656-8.2812 11.82-14.352 17.785-21.48 26.328-31.477 56.773-57.133 91.199-77.953 32.566-19.691 66.254-36.035 102.29-46.727 19.105-5.6641 38.988-6.8164 58.297-11.363 11.039-2.6055 22.078-5.2695 33.203-7.3672 9.9492-1.8828 13.934 2.9648 14.762 14.051 0.79297 10.609 7.9453 18.035 15.059 24.312 5.0039 4.4141 10.57-0.52734 15.625-2.8086 0.42188-0.19141 0.75781-0.61328 1.1758-0.83984 18.527-10.586 21.145-10.234 29.23 10.105 13.633 34.309 36.324 62.305 54.984 93.086 6.168 10.176 12.527 20.125 17.16 31.246 1.5352 3.6836 3.0352 7.4648 5.1484 10.766 25.969 40.414 44.496 85.176 65.617 128.44 9.625 19.703 21.406 38.051 34.273 55.402 9.7188 13.094 18.805 26.699 26.387 41.074 9.7578 18.48 21.66 35.449 31.234 54.023 4.9805 9.6484 11.52 18.422 17.809 27.227 12.91 18.07 22.68 38.328 34.848 56.902 0.81641 1.2344 1.7383 2.4102 2.3984 3.7422 1.1523 2.3047 1.8008 4.7383-0.22656 6.9102-2.207 2.3633-4.4883 0.97266-6.3359-0.46875-4.4531-3.4688-7.4297-9.1562-14.051-9.1211-16.715 0.097656-33.203-1.2461-50.027 3-29.566 7.4648-56.484 21.84-84.395 33.625-34.332 14.484-66.445 33.719-94.801 58.871-20.652 18.312-36.695 41.711-52.5 64.934-10.859 15.938-19.668 33.266-27.852 50.832-9.5117 20.312-15.258 41.875-12.93 65.551zm-484.46 38.461c-4.5-13.164-11.605-23.762-24.48-28.691 6.5039 11.258 12.527 23.004 24.898 28.309-1.0664 2.6406 0.10938 4.8008 1.1992 7.0664 9.6602 20.219 25.129 35.977 36.781 54.719 4.8477 7.8008 11.352 14.617 16.43 22.535 5.9023 9.2148 12.805 17.566 22.777 22.344-4.1875-9.1914-8.2812-18.023-13.223-26.508-9.8398-16.871-24-29.617-35.258-45.035-8.9883-12.309-18.422-24.105-29.125-34.738zm-71.758-93.395c1.7656 2.832 1.957 7.4883 7.6562 7.2852-1.9922-4.3789-2.9297-8.4727-8.125-6.8281 3.0586-7.9922-1.8008-13.668-5.4727-19.246-12.395-18.875-23.387-38.773-37.344-56.555-16.922-21.574-32.641-44.258-45.91-68.605-10.211-18.707-24.047-34.656-33.875-53.594-6.1562-11.867-16.176-20.137-26.039-32.172-1.6797 15.77-1.0195 26.723 7.4648 38.41 16.727 23.051 33.66 45.984 49.777 69.574 21.07 30.84 49.188 55.414 69.324 87.348 4.4141 6.9961 9.5625 13.621 13.5 21.023 2.5742 4.8516 5.1875 9.5664 9.043 13.359zm829.59-241.59c-9.1094-35.102-23.531-67.789-40.645-99.035-11.172-20.41-24.215-39.625-34.621-60.602-7.0664-14.27-15.504-27.684-24.406-40.703-30.613-44.711-58.621-91.211-85.031-138.9-13.691-24.719-27.434-49.754-44.016-72.203-17.52-23.711-34.367-47.93-51.602-71.844-20.496-28.441-15.898-27.422-47.52-21.215-29.039 5.6875-58.523 8.4258-86.555 20.594-42.574 18.48-82.969 40.668-119.83 70.008-36.145 28.766-64.066 65.207-84.277 108.1-5.543 11.762-13.008 22.164-18.121 34.094-5.1602 12.035-5.2305 12.312 3.8281 22.031 2.9766 3.1914 6.5898 5.5938 8.8789 9.6484 15.613 27.48 36.18 51.047 53.461 77.281 16.465 24.996 33.422 49.633 49.68 74.785 32.148 49.727 63.312 100.18 95.207 150.09 33.539 52.465 67.559 104.43 104.73 154 4.7891 6.3828 9.9844 11.734 18 14.617 12.77-26.16 25.285-52.668 44.461-74.531 14.172-16.152 28.043-32.555 43.211-47.746 16.332-16.344 35.27-28.547 53.531-41.832 17.941-13.055 36.551-25.094 57.203-32.605 34.289-12.457 68.898-23.703 104.43-34.023zm-329.15 222.67c-3.5742-11.809-11.914-16.824-17.102-24.539-17.039-25.309-36.875-48.289-53.496-74.016-13.105-20.293-28.32-39.035-41.125-59.52-23.305-37.285-45.48-75.359-68.172-113.07-25.754-42.77-51.145-85.824-81.59-125.06-15.312-19.754-31.98-38.293-45.047-60.023-3.7578-6.2539-9.5742-11.062-14.27-16.691-2.6992-3.2383-5.9648-4.8945-9.8984-5.0273-22.117-0.78125-44.281-2.207-66.203 2.4375-25.812 5.4727-50.762 12.938-75.059 24.84-25.738 12.613-51.395 24.898-75.301 41.207-33.312 22.738-60.254 51.324-74.734 91.668-2.1953 6.1094-4.6914 12.109-8.7734 17.195-15.059 18.793-14.809 42.637-1.957 62.855 6.4062 10.066 15.191 18.238 20.543 28.691 9.6836 18.91 23.723 35.016 30.84 55.535 0.79297 2.2695 2.7344 4.0664 4.1406 6.0977 12.898 18.434 25.031 37.379 36.852 56.641 12.012 19.57 26.426 37.488 39.191 56.652 3.7305 5.6172 8.7461 10.246 11.027 17.051 1.9688 5.8438 5.5547 10.738 9.8047 14.664 9.4453 8.7461 15.828 19.738 21.695 31.246 1.332 2.6172 2.8203 5.3281 4.8008 7.3789 17.328 17.93 31.117 39.168 47.316 58.152 6.9844 8.1836 14.27 16.297 19.922 25.512 19.441 31.68 43.691 59.172 65.879 88.453 5.1953 6.8633 6.5625 6.457 10.801-1.5234 6.9609-13.129 12.758-26.941 20.832-39.434 15.77-24.406 36.77-43.344 57.695-61.969 39.457-35.102 84.516-60.266 132.09-80.363 31.609-13.383 64.176-22.84 99.301-25.035zm-646.46-246.8c-5.9766 11.363-2.6406 22.129 3.2539 29.699 14.207 18.254 26.867 37.559 39.648 56.891 4.3203 6.5273 8.7461 12.73 11.988 20.004 4.3086 9.6602 13.812 15.828 17.461 25.512 9.4219 25.02 28.273 42.602 42.816 63.395 13.008 18.602 23.977 38.484 36.527 57.301 10.871 16.297 19.871 33.828 32.352 49.141 10.164 12.469 19.262 25.906 30.66 37.246 2.3516 2.3398 3.9375 5.6758 5.4961 8.7617 4.5469 8.9883 10.68 16.559 17.746 23.316 3.168 3.0352 6.7578 5.7461 8.6172 9.9102 5.4375 12.203 14.965 20.594 23.652 29.797 2.0039 2.125 4.3438 4.0078 5.8789 6.4805 11.723 18.84 23.629 37.57 34.754 56.82 4.8945 8.4727 12.684 13.391 18.602 20.508 2.2812 2.7344 5.2578 2.375 6.6133-1.4023 1.7539-4.8828 5.5312-10.453-3.5039-12.324-4.5977-0.96094-5.832-6.1797-7.9336-10.043-3.3242-6.0977-5.7461-12.984-9.9727-18.238-31.273-38.977-57.961-81.852-89.965-120.2-28.824-34.547-55.789-70.668-80.09-109.15-16.57-26.242-34.754-51.359-52.055-77.113-20.074-29.867-38.82-60.551-56.891-91.777-10.887-18.754-25.801-34.496-35.656-54.527zm-1.043 78.637c-4.6094 11.496-2.2188 18.84 3.3711 25.703 13.57 16.668 27.469 33.012 40.164 50.496 16.129 22.223 33.457 43.488 48.91 66.215 27.023 39.73 51.469 81.457 81.301 119.03 13.453 16.945 18.492 40.957 38.219 52.801 0.55078 0.33594 0.20312 2.207 0.78125 2.7227 11.93 10.789 15.121 29.113 29.004 38.293 10.453 6.9102 17.965 17.34 26.617 26.449 7.9922 8.3984 17.242 15.324 24.059 25.176 2.1016 3.0352 5.6758 6.1328 10.031 6.793 0.66016-4.043-1.1758-5.8672-2.5195-7.7266-6.0117-8.3633-11.773-16.883-19.379-23.855-10.477-9.6016-15.984-23.699-25.609-34.105-13.32-14.398-23.375-31.547-34.262-47.82-12.91-19.332-26.555-38.148-41.555-55.285-18.828-21.527-33.012-46.211-48.527-70.078-12.59-19.367-24.434-39.203-39.938-56.352-20.902-23.113-40.992-47.027-57.91-73.895-9.418-14.941-20.816-28.453-32.758-44.559zm312.06 422.82c-1.9336 2.2188-1.1758 3.6719-0.35938 4.7031 9.8047 12.469 20.832 23.855 28.645 38.051 2.6992 4.8945 6 3.6836 9.3828 0.82812 4.8828-4.1172 8.5938-9.3359 11.844-14.902 15.539-26.555 34.645-50.242 52.633-74.809 8.125-11.09 16.738-22.043 26.496-31.43 31.883-30.637 64.801-60.023 101.54-83.855 14.797-9.6016 28.715-21.121 45.898-26.27 5.8555-1.7539 11.387-5.3633 15.445-10.871-32.449 9.7188-61.559 26.652-89.438 46.402-14.508 10.285-28.234 21.816-42.758 31.945-17.363 12.121-34.43 24.516-50.004 39.086-23.23 21.742-37.344 51.551-57.395 76.141-0.60156 0.73047-1.0781 1.7539-1.2109 2.7109-1.9336 14.352-12.133 24.254-16.871 38.051-14.223-9.5469-21.648-25.449-33.852-35.781zm342.17-225.16c-6.1328-3.0352-11.93-2.1133-17.566-0.33594-16.211 5.1133-32.855 9.1562-48.434 15.973-39.898 17.461-81.406 31.414-116.02 60.828-15.035 12.793-33.121 21.672-46.715 36.191-14.566 15.562-30.805 29.746-41.891 48.863-1.7031 2.9414-4.0664 5.6172-6.5742 7.8359-16.273 14.438-28.922 31.441-33.324 54.156-0.70703 3.6602-2.0742 5.3047-5.4609 5.1836-2.7617-0.097656-5.6055-0.78125-8.0742 1.2734 3.4453 10.703 6.1328 14.855 10.223 14.004 5.9648-1.2344 9.6484-5.7344 11.664-11.844 0.78125-2.3633 1.7539-4.6797 2.7969-6.9375 2.0898-4.5 3.7188-9.3945 6.5156-13.344 24.348-34.355 45.949-71.195 80.711-95.723 25.883-18.254 50.27-38.977 76.273-57.035 31.68-21.996 66.91-36.434 102.05-50.773 5.207-2.125 10.922-2.8672 16.402-4.2109 5.8281-1.3789 11.625-2.7344 17.422-4.1055zm-20.93-8.8906c-20.125-2.8438-39.961-1.3555-58.43 5.4102-34.199 12.551-68.207 25.992-97.344 50.352-17.82 14.891-36.457 28.68-55.055 42.469-27.793 20.617-46.309 49.777-64.609 79.176-1.668 2.6758-4.7031 5.4258-1.9922 9.9961 9.6484-9.7812 19.777-18.973 27.168-30.613 8.8555-13.957 20.785-24.875 32.074-35.855 24.77-24.07 52.367-44.832 81.312-62.617 29.363-18.035 61.078-31.391 93.336-42.816 14.523-5.1445 29.031-10.34 43.539-15.5zm-449.43 46.285c-7.2969-12.047-16.68-22.105-25.211-32.953 5.6172 13.414 10.957 27.035 25.211 32.953zm-63.789-7.9102c1.5859-10.871-6.1094-13.68-10.883-22.344-0.27734 12.023 5.1953 16.32 10.883 22.344zm-122.68-184.86c-1.5469-0.96094-3.0859-2.0508-4.7539-2.832-0.27734-0.13281-1.7031 1.3438-1.5977 1.6914 0.80469 2.4609 3.0703 1.3203 4.6797 1.8828 1.2617 0.45703 1.8398 0.17188 1.6719-0.74219zm182.18 260.48c-1.3203-0.22656-1.8477 0.3125-1.1758 1.2852 0.79297 1.1406 1.7031 2.3281 2.8203 3.0352 1.0938 0.69531 1.6445-0.023437 0.92578-1.1172-0.76953-1.1523-1.7188-2.1602-2.5703-3.2031zm41.051 48.574c0.097657 3.9492 1.1055 5.9023 3.0703 7.2969 0.92578 0.66016 2.1602 0.45703 2.1367-0.53906-0.082031-2.9648-1.4258-5.2578-5.207-6.7578zm-165.88-224.16c-0.23828-2.0508-1.0781-3.6836-3.0586-4.1641-1.8008-0.44531-4.1992-0.44531-4.7539 1.4141-0.57422 1.957 1.5 3.1328 3.2266 3.8164 1.7422 0.69922 3.4336 1.1211 4.5859-1.0664zm181.37 227.39c-1.9805-0.023437-2.5938 1.1641-2.3164 2.6992 0.14453 0.81641 0.81641 1.7891 1.5117 2.1836 1.7266 0.99609 2.4492-0.34766 2.5781-1.8828 0.12109-1.4883-0.52734-2.6992-1.7734-3zm-69.551-72.109c-1.0195-1.2734-1.8594-3.1445-3.2266-3.8281-1.4414-0.73047-2.3398 0.76953-2.0391 2.4375 0.37109 2.0508 1.7383 3.2148 3.6016 3.4805 0.36719 0.058594 0.88281-1.0703 1.6641-2.0898zm-135.71-181.69c-0.17969 2.4727 1.0664 3.6836 3.0117 4.0078 0.73047 0.12109 2.125-0.3125 2.2812-0.81641 0.625-2.1484-0.53906-3.6719-2.2812-4.4648-1.2578-0.58594-2.5078-0.17969-3.0117 1.2734z"/>
  <path d="m537.31 313.95c-1.0664-0.63672-2.6172-1.043-3.3359-2.1016-1.1875-1.7266-0.875-3.8633 0.37109-5.5664 5.7734-7.9336 10.164-16.883 16.883-24.168 26.172-28.344 54.805-53.809 83.676-78.695 24.145-20.82 51.66-36.84 80.641-49.391 12.203-5.2812 24.371-10.656 36.59-15.91 2.5938-1.1172 5.2812-2.1836 8.0156-2.6406 3.0469-0.50391 6.0469 0.82812 6.4219 4.3086 0.26562 2.5781-1.9805 4.0781-4.6211 4.6914-11.09 2.5781-21.07 8.5078-31.738 12.312-31.656 11.281-60.047 30-86.148 50.953-31.453 25.234-61.68 52.727-89.172 83.219-4.3438 4.8125-7.3203 10.465-10.02 16.344-1.5742 3.3555-3.8086 5.707-7.5625 6.6445z"/>
  <path d="m920.99 361.19c-6.0234 4.5117-13.895 4.3789-20.387 7.8477-6.7188 3.5898-13.766 6.457-20.594 9.8281-42.625 21.121-85.656 41.652-124.13 70.883-18 13.668-33.215 31.188-46.141 50.508-4.8828 7.3086-8.4727 15.684-9.3125 25.02-0.37109 4.0938-2.6055 6.707-6.6133 5.8906-4.8008-0.98437-3.5508-4.5977-2.6289-8.1602 3.6016-13.859 10.512-25.883 18.707-36.926 19.246-25.906 42.504-46.969 69.73-62.699 34.738-20.062 69.793-39.469 105.8-56.832 9.0703-4.3672 18.324-7.8945 28.199-9.2266 2.5391-0.32031 5.7891-1.3867 7.3633 3.8672z"/>
  <path d="m956.32 437.54c-3.1094-1.957-5.207-0.74219-7.4141 0.17969-48.719 20.652-95.82 44.484-138.16 78.168-12.887 10.262-25.199 20.891-36.312 33.457-8.6406 9.7812-15.098 20.461-19.812 32.664-0.88672 2.3164-1.6797 4.7539-2.9766 6.7812-2.0625 3.2383-5.1719 4.9336-8.4609 2.4375-3.8164-2.8906-0.15625-4.9453 1.3086-7.1523 1.0938-1.6445 2.5078-3.1797 3.1094-5.0156 10.703-32.461 35.676-51.098 59.723-70.465 44.449-35.773 94.262-60.707 145.92-81.77 0.875-0.35938 1.8008-0.625 2.6641-1.0078 4.7891-2.1836 9.6367-4.6094 14.641-1.0078 0.61328 0.44531 0.60156 3.5625-0.058593 4.0781-4.5391 3.543-7.2266 11.258-14.176 8.6523z"/>
  <path d="m804.89 206.47c-0.92578 4.5977-4.5469 4.7656-7.6445 5.6758-20.484 6-40.223 13.969-58.621 25.441-23.125 14.438-45.926 29.449-67.668 46.199-10.441 8.0391-18.07 19.223-25.32 30.254-12.949 19.715-29.062 37.094-38.555 59.387-1.3438 3.1562-3.8984 4.6562-6.8633 2.6758-3.0234-2.0156-2.4844-5.0508-0.75781-7.8594 3.875-6.2891 7.2344-12.887 11.617-18.887 8.3867-11.496 16.141-23.52 24.098-35.375 15.59-23.207 34.812-41.965 57.695-56.844 22.883-14.879 44.832-31.5 70.066-41.797 10.957-4.4648 22.031-8.6172 33.133-12.695 3.7578-1.3828 7.5-1.4688 8.8203 3.8242z"/>
  <path d="m1012.2 479.66c0.15625 3.0352-1.8242 4.7031-3.9102 5.6641-6.0352 2.7617-12.227 5.0898-18.336 7.6914-52.234 22.262-102.18 48.852-143.34 90.938-19.043 19.477-35.891 41.242-51.492 64.031-1.6562 2.4258-2.9883 5.3281-5.1133 7.1172-2.7344 2.3047-6.1914 2.7734-8.8789-0.49219-3.3711-4.0938-0.27734-5.7734 2.5078-8.1016 13.895-11.578 23.09-27.77 34.441-41.762 28.512-35.137 62.184-62.27 100.09-84.73 26.426-15.648 54.133-27.828 81.527-40.98 2.8789-1.3789 6.3594-1.4414 9.5898-1.8594 1.4453-0.17969 2.5742 0.78125 2.9102 2.4844z"/>
  <path d="m858.23 267.1c-0.13281 2.8906-1.4883 4.2344-3.2031 5.1602-5.0156 2.7109-9.8867 5.9023-15.156 7.8945-30.266 11.398-59.953 24.457-85.586 45.324-22.402 18.227-43.871 37.906-61.812 61.535-11.23 14.797-24.949 27.371-34.332 43.859-1.4883 2.6172-4.043 4.332-7.0664 4.3672-1.2969 0.011719-2.9023-0.38281-3.8281-1.2617-1.6562-1.5859-1.1758-3.6602 0.20312-5.2695 25.703-30.047 49.535-61.812 77.867-89.41 31.703-30.898 69.086-49.969 108.28-66.121 5.7461-2.375 10.969-5.6641 16.453-8.4844 3.3008-1.6875 6.3359-0.76172 8.1836 2.4062z"/>
  <path d="m160.3 524.68c13.836-20.867 26.82-41.785 41.113-61.609 14.785-20.508 32.605-37.57 54.395-49.754 30.047-16.789 59.688-34.43 91.754-46.598 7.5352-2.8555 15.289-5.0391 22.957-7.4766 13.5-4.2969 27.719-6.0703 40.332-13.477 2.4961-1.4648 5.2812-2.1484 8.1953-1.5352 1.4141 0.28906 2.9023 0.86328 3.0117 2.5312 0.085937 1.3438-0.19141 3.1445-0.99609 4.0547-3.707 4.2109-8.8086 5.7344-13.777 7.2109-17.699 5.2305-35.734 9.3477-53.113 15.59-39.91 14.316-77.102 35.172-112.52 59.16-20.051 13.586-34.598 33.996-47.855 55.02-6.3242 10.031-12.07 20.473-18.371 30.527-3.3516 5.3477-6.9844 11.094-15.121 6.3555z"/>
  <path d="m353.41 784.29c-0.89844-0.57422-2.5781-1.0547-3.1094-2.1602-0.48047-1.0195-0.21484-3.2148 0.53906-4.0312 28.777-30.984 55.031-64.512 87-92.293 22.535-19.586 45.91-36.383 72.816-48.047 26.074-11.305 50.762-26.496 79.188-30.91 2.6875-0.42188 5.9648-2.4961 6.9375 1.7031 0.82812 3.6133-2.3984 4.9062-5.1367 5.8086-14.785 4.8594-29.93 8.3047-44.102 15.516-19.078 9.7188-38.617 18.434-58.02 27.434-24.312 11.281-41.617 32.594-61.98 49.5-23.578 19.57-42.926 43.559-61.621 68.219-5.9102 7.8203-8.2148 9.3086-12.512 9.2617z"/>
  <path d="m505.27 472.86c-0.92578 6.3711-6.3711 8.1367-10.922 9.4453-48.828 13.992-90.539 44.207-135 68.027-27.059 14.496-47.172 38.062-63.684 64.992-6.707 10.945-12.996 22.188-19.621 33.18-1.7656 2.9297-3.8164 5.7969-6.2148 8.125-3.3008 3.1914-7.1289 3.2891-9.5898-1.0664-2.3164-4.1055 1.8359-4.5117 3.8164-6.2383 7.0547-6.1562 10.789-15.059 15.926-22.789 7.6328-11.484 14.734-23.375 22.523-34.738 18.312-26.711 43.43-44.184 70.535-58.934 15.086-8.207 30.359-16.141 44.879-25.391 25.703-16.379 53.734-26.387 81.84-36.336 1.7539-0.60547 3.7227-0.64062 5.5117 1.7227z"/>
  <path d="m300.78 701.71c15.266-7.2852 22.465-20.988 32.652-31.188 52.402-52.453 109.34-97.031 178.56-120.93 3.0469-1.0547 5.9297-1.9688 8.1367-5.2812 5.6523-8.4609 14.125-5.9414 21.91-5.1484 1.7031 0.17969 3.5039 1.9219 3.0703 4.2617-0.23828 1.2969-1.1758 2.8789-2.2305 3.4805-2.4727 1.4141-5.1484 2.4609-7.8242 3.4219-30.348 10.922-60 23.594-88.68 38.965-11.004 5.9023-21.719 12.312-31.367 20.207-22.43 18.336-44.305 37.441-66.156 56.555-10.957 9.5898-20.652 20.555-28.98 32.941-5.8789 8.7969-6.2734 8.5312-19.09 2.7109z"/>
  <path d="m218.71 583.13c18.59-36.023 46.129-60.961 75.266-84.227 36.422-29.074 76.094-51.77 118.49-69.145 15.898-6.5156 33.191-6.9844 49.066-13.441 1.9688-0.80469 4.1641-0.55078 5.0273 1.2109 1.3555 2.7852-0.5625 4.957-2.8086 5.8906-4.7891 2.0039-9.625 4.2344-14.641 5.1719-15.828 2.9648-30.793 9.1328-46.078 14.004-20.438 6.5156-38.051 19.668-56.82 30.012-32.82 18.098-62.125 41.902-88.523 69.457-9.9375 10.367-20.988 20.219-26.258 35.016-1.75 4.9688-4.7852 10.371-12.719 6.0508z"/>
  <path d="m638.57 690.2c0.011719 2.9531-2.0273 4.3086-3.9727 5.6758-7.5469 5.3281-15.973 8.6641-24.434 11.734-34.547 12.562-66.492 30.539-96.684 52.355-37.402 27.012-69.898 59.641-98.219 97.152-1.1758 1.5586-2.3047 3.2891-3.8047 4.3906-2.4258 1.7773-5.4375 2.6875-7.7656 0.20312-2.6641-2.8555-0.67188-5.4609 1.3789-7.668 15.277-16.43 30.781-32.629 45.828-49.297 26.785-29.688 58.465-52.547 91.031-73.859 14.773-9.6719 31.129-16.801 47.27-23.746 13.105-5.6406 26.664-10.02 38.652-18.312 2.5195-1.7383 5.0391-2.6992 7.9688-1.668 1.3711 0.48438 2.5117 1.3125 2.75 3.0391z"/>
  <path d="m705.23 760.23c-1.4766 6.8164-5.3984 7.0195-8.9531 8.2812-23.652 8.3867-47.902 14.867-70.801 25.633-24.18 11.363-46.754 25.934-69.949 39.301-34.477 19.859-61.094 48.312-83.52 81.949-1.9219 2.8672-3.9258 5.6758-5.9414 8.4609-1.6445 2.2695-3.8281 3.1797-6.0117 1.2227-2.3867-2.1367-1.1523-4.4883 0.44531-6.5273 19.586-25.078 36.359-53.09 62.555-71.375 45.84-32.004 92.832-61.609 146.3-77.039 4.0195-1.1641 7.8242-2.6641 11.426-5.543 7.0234-5.6445 15.23-6.8828 24.445-4.3633z"/>
 </g>
</svg>
